<svg fill="none" height="20" viewBox="0 0 20 20" width="20" xmlns="http://www.w3.org/2000/svg"><path d="m0 2.14286c0-1.18347.95939-2.14286 2.14286-2.14286h15.71424c1.1835 0 2.1429.95939 2.1429 2.14286v15.71424c0 1.1835-.9594 2.1429-2.1429 2.1429h-15.71424c-1.18347 0-2.14286-.9594-2.14286-2.1429z" fill="#1c3652"/><g fill="#5aa4ff"><path d="m20 17.8571c0 1.1835-.9594 2.1429-2.1429 2.1429 1.1831 0 2.1429-.9598 2.1429-2.1429z"/><path d="m17.8571 0c1.1835 0 2.1429.95939 2.1429 2.14286 0-1.183039-.9598-2.14286-2.1429-2.14286z"/><path d="m0 2.14245c.00021955-1.183279.959525-2.14245 2.14286-2.14245-1.182903 0-2.14264036.959602-2.14286 2.14245z"/><path d="m12.3795 17.1295c-.375.0669-.5134-.1652-.5134-.3572 0-.0793.0009-.2661.0022-.5165v-.0013c.0027-.5102.0067-1.2837.0067-1.9509 0-.6965-.2321-1.1384-.5045-1.3706 1.6518-.183 3.3929-.4107 3.3929-3.26336 0-.8125-.2902-1.21875-.7634-1.74107.0759-.19196.3304-.98214-.0759-2.00893-.6205-.19196-2.0402.79911-2.0402.79911-.5893-.16518-1.2276-.25-1.8571-.25-.62948 0-1.26787.08482-1.85716.25 0 0-1.41964-.99107-2.04018-.79911-.40625 1.02232-.15625 1.8125-.07589 2.00893-.47321.52232-.69643.92857-.69643 1.74107 0 2.83926 1.66518 3.08036 3.31697 3.26336-.21429.192-.40625.5224-.47322.9956-.4241.1919-1.50893.5223-2.15625-.6206-.40625-.7053-1.13839-.7634-1.13839-.7634-.72321-.0089-.04911.4554-.04911.4554.48215.2232.82143 1.0804.82143 1.0804.43304 1.3259 2.50447.8794 2.50447.8794 0 .4022.00375.9674.00638 1.3653l.00001.0007c.00143.2157.00253.3822.00253.4465 0 .192-.13392.4241-.51339.3572-2.94643-.9866-5.00893-3.7902-5.00893-7.067 0-4.09821 3.13393-7.20982 7.23215-7.20982 4.09821 0 7.41961 3.11161 7.41961 7.20982.0045 3.2768-1.9955 6.0848-4.9419 7.067z"/><path d="m8 14.4018c-.08482.0178-.16518-.0179-.17411-.0759-.00893-.067.04911-.125.13393-.1429.08482-.0089.16518.0268.17411.0849.01339.058-.04464.116-.13393.1339z"/><path d="m7.57589 14.3616c0 .058-.06696.1072-.15625.1072-.09821.0089-.16518-.0402-.16518-.1072 0-.058.06697-.1071.15625-.1071.08483-.009.16518.0401.16518.1071z"/><path d="m6.96429 14.3125c-.01786.058-.10715.0848-.18304.058-.08482-.0178-.14286-.0848-.125-.1428.01786-.0581.10714-.0848.18304-.067.08928.0268.14732.0938.125.1518z"/><path d="m6.41518 14.0714c-.04018.0491-.125.0402-.19197-.0268-.06696-.058-.08482-.1428-.04017-.183.04017-.0491.125-.0402.19196.0268.05804.058.08036.1473.04018.183z"/><path d="m6.00893 13.6652c-.04018.0268-.11607 0-.16518-.067-.04911-.0669-.04911-.1428 0-.1741.04911-.0402.125-.0089.16518.058.04911.067.04911.1474 0 .1831z"/><path d="m5.71875 13.2321c-.04018.0402-.10714.0179-.15625-.0267-.04911-.0581-.05804-.125-.01786-.1563.04018-.0402.10715-.0178.15625.0268.04911.058.05804.125.01786.1562z"/><path d="m5.41964 12.9018c-.01785.0402-.07589.0491-.125.0178-.05803-.0267-.08482-.0759-.06696-.116.01786-.0268.06696-.0402.125-.0179.05803.0313.08482.0804.06696.1161z"/></g></svg>